<?xml version="1.0" encoding="UTF-8"?><svg id="Capa_2" xmlns="http://www.w3.org/2000/svg" viewBox="0 0 553.72 415.98"><defs><style>.cls-1{fill-rule:evenodd;}.cls-1,.cls-2{fill:#fff;stroke-width:0px;}</style></defs><g id="Capa_1-2"><polygon class="cls-2" points="33.2 411.43 33.36 411.43 53.77 355.58 57.41 355.58 35.35 414.57 31.13 414.57 9.15 355.58 12.95 355.58 33.2 411.43"/><path class="cls-2" d="m72.35,355.58h3.14v8.51h-3.14v-8.51Zm0,16.52h3.14v42.47h-3.14v-42.47Z"/><path class="cls-2" d="m96.22,372.1h3.14v9.09h.17c2.15-6.36,8.59-10.08,15.2-10.08,14.96,0,15.12,11.98,15.12,17.19v26.28h-3.14v-26.85c0-4.38-.5-13.88-12.06-13.88-9.5,0-15.29,7.35-15.29,17.76v22.97h-3.14v-42.47Z"/><path class="cls-2" d="m151.32,400.44c.5,7.85,6.36,12.4,14.04,12.4,5.54,0,13.47-1.65,13.47-9.01s-7.27-8.26-14.54-9.75c-7.35-1.49-14.63-3.39-14.63-12.07s8.18-10.91,15.37-10.91c9.01,0,15.7,3.88,15.7,13.55h-3.14c-.08-7.69-5.45-10.83-12.56-10.83-5.78,0-12.23,2.15-12.23,8.18,0,6.78,7.27,7.85,14.13,9.34,8.43,1.57,15.04,3.55,15.04,12.48s-9.17,11.73-16.61,11.73c-9.67,0-16.94-5.2-17.19-15.12h3.14Z"/><path class="cls-2" d="m234.75,355.58h3.14v8.51h-3.14v-8.51Zm0,16.52h3.14v42.47h-3.14v-42.47Z"/><path class="cls-2" d="m338.84,373.18c-1.57-9.92-10.25-15.86-20.08-15.86-15.45,0-24.46,12.64-24.46,27.76s9,27.76,24.46,27.76c11.49,0,20.41-10.25,21.07-21.24h3.64c-1.32,14.05-11.74,24.38-24.71,24.38-17.68,0-28.09-13.63-28.09-30.9s10.41-30.91,28.09-30.91c20.9,0,23.63,18.18,23.71,19.01h-3.63Z"/><path class="cls-2" d="m392.53,406.72c0,2.48,0,5.13,2.81,5.13.58,0,1.32-.08,2.31-.25v2.64c-.91.17-1.73.33-2.56.33-4.96,0-5.7-2.73-5.7-6.2v-2.23h-.16c-1.98,5.04-7.69,9.42-15.78,9.42s-14.21-3.06-14.21-11.98c0-9.92,8.59-11.98,15.62-12.56,14.05-.99,14.63-1.9,14.63-8.84,0-1.9-2.15-8.34-11.82-8.34-7.6,0-12.64,3.97-13.06,11.32h-3.14c.41-9.33,6.19-14.04,16.19-14.04,7.44,0,14.87,2.31,14.87,11.07v24.54Zm-3.14-16.28c-2.48,2.81-9.25,2.48-15.37,3.31-7.44.82-11.65,3.47-11.65,9.83,0,5.12,3.72,9.25,11.15,9.25,14.3,0,15.86-12.23,15.86-14.46v-7.93Z"/><polygon class="cls-2" points="429.45 414.57 425.56 414.57 408.46 372.1 412.1 372.1 427.46 410.94 427.63 410.94 442.01 372.1 445.48 372.1 429.45 414.57"/><path class="cls-2" d="m461.9,393.75c-.17,10,5.12,19.09,15.62,19.09,8.01,0,13.71-4.79,15.2-12.64h3.14c-1.65,9.91-8.26,15.37-18.34,15.37-12.4,0-18.92-9.75-18.76-21.48-.17-11.65,5.95-22.97,18.76-22.97s19.25,10.49,18.67,22.64h-34.29Zm31.15-2.73c-.17-8.92-5.79-17.19-15.53-17.19s-14.96,8.76-15.62,17.19h31.15Z"/><path class="cls-2" d="m515.76,400.44c.5,7.85,6.36,12.4,14.05,12.4,5.54,0,13.47-1.65,13.47-9.01s-7.27-8.26-14.54-9.75c-7.35-1.49-14.62-3.39-14.62-12.07s8.18-10.91,15.37-10.91c9.01,0,15.7,3.88,15.7,13.55h-3.14c-.09-7.69-5.45-10.83-12.56-10.83-5.78,0-12.23,2.15-12.23,8.18,0,6.78,7.28,7.85,14.13,9.34,8.43,1.57,15.04,3.55,15.04,12.48s-9.18,11.73-16.61,11.73c-9.67,0-16.94-5.2-17.19-15.12h3.14Z"/><path class="cls-1" d="m117.69,188.2c4.34,19.96,3.04,42.17-12.15,56.93-15.63,16.05-41.77,13.55-61.73,21.36-.57,18.73-.85,52.02,6.57,57.45,4.17,4.28,14.14,1.91,14.73,7.43l-2.01,2.06c-15-.06-29.74-.24-41.65-.54,0,0-3.59.31-3.58-5.37-.62-46.75,5.71-94.22.43-141.05-1.74-9.12-10.85-12.15-18.23-15.19-1.14-4.37,11.29-2.6,16.92-3.04,28.25.2,61.19-3.91,86.8,4.77,5.64,3.47,11.72,8.68,13.89,15.19m-73.78-5.21l.43,81.67,2.13-1.22c3.05-4.58,5.5-10.07,7.85-14.48,12.59-1.73,26.47-1.3,34.72-12.59,8.68-10.85,7.38-27.78,3.04-40.36-8.25-19.53-32.12-22.13-48.17-13.02"/><path class="cls-1" d="m191.02,253.74c11.72,18.66,9.98,46-3.04,63.36-9.98,13.02-26.04,17.36-41.23,15.19-14.76-.87-28.21-12.59-32.99-26.47-5.64-19.1-2.6-39.49,9.11-54.68,11.72-13.45,28.64-19.96,46-15.62,8.68,2.6,17.8,9.55,22.13,18.23m-42.53-10.42c-10.85,6.51-15.62,17.79-17.79,29.08-2.6,19.1.87,38.19,15.62,50.78,5.64,3.04,13.45,3.04,19.53,0,17.36-14.76,17.79-43.4,10.85-63.8-4.78-10.85-15.62-23.44-28.21-16.06"/><path class="cls-1" d="m428.14,253.3c4.78,7.81,4.78,18.48,2.17,27.16-17.96,0-38.62-2.42-55.55,2.36-4.78,2.17-5.91,7.1-5.21,11.72.87,7.81,7.81,14.32,15.19,17.36,14.76,4.34,29.95,1.73,45.14-1.3-1.3,6.51-10.2,11-15.63,14.32-13.89,7.38-29.91,5.22-42.1-1.73-15.19-8.68-21.27-24.31-20.4-41.23.43-16.49,5.64-31.25,19.09-41.23,10.44-6.81,20.83-8.25,32.12-5.64,11.21,2.5,19.45,7.61,25.17,18.23m-45.57-9.98c-14.32,8.68-13.72,29.92-13.72,42.94l3.74-4.74c4.77-16.49,26.04-9.55,39.06-12.15l1.74-1.73c-.87-8.24-2.17-16.93-7.81-23.44-5.21-5.64-16.49-4.34-23-.87"/><path class="cls-2" d="m275.45,245.92c1.74,7.38-2.18,16.6-6.51,19.96-6.66-1.83-7.88-7.02-8.68-13.88-3.47-1.74-6.95-.87-10.42,1.3-6.94,7.38-6.79,18.69-6.94,29.08.76,14.86-1.56,39.82,10.22,44.09,2.17,1.3,7.33,1.53,7.14,4.51l-29.04.06c-5.19,0-7.76-1.33-7.33-6.1l-.96-73.38c-3.47-5.64-6.51-12.15-14.75-10.85v-2.53c8.39-.31,20.4-.51,29.94-.51,1.34,5.62,2.79,9.59,5.64,16.06,2.95-2.81,4.17-7.08,5.21-10.85,1.3-2.6,2.51-6.71,5.98-7.15,7.81,1.74,14.42,4.54,20.49,10.18"/><path class="cls-2" d="m315.53,234.83c5.16,0,13.48-.19,19.99.25-.06.15-3.2,7.92-3.2,7.92.3.31-15.56-.32-15.89,0l.43,62.83c.2,5.7,1.72,10.89,7.83,10.89,6.11.91,10.84.39,16.91.39-9.89,5.1-19.35,17.92-32.17,11.2-5.64-3.47-9.61-8.6-10.91-14.68l.12-66.06c.43-1.3,2.6-2.54.87-4.27-3.73,0-8.92,0-13.45-.41l12.16-7.45-.05-23.87c4.63-4.15,11.3-6.87,17.38-6.87v30.13Z"/><path class="cls-2" d="m474.41,169.96l-.16,133.68c-.45,19.16,20.24,17.2,19.96,23-13.56-.11-22.78-.11-34.72-.11-9.55,1.3-6.51-9.01-6.94-13.78l-.38-132.15c0-6.72-4.98-12.72-17.85-13.24,0,0-1.26-.33-1.26-1.64s1.26-1.67,1.26-1.67c11.48,0,24.09,0,36.46.27,0,0,1.31.19,2.67,1.67,1.39,1.51.97,3.97.97,3.97"/><path class="cls-2" d="m533.91,169.96l-.16,133.68c-.45,19.16,20.24,17.2,19.97,23-13.57-.11-22.78-.11-34.72-.11-9.55,1.3-6.51-9.01-6.94-13.78l-.38-132.15c0-6.72-4.98-12.72-17.85-13.24,0,0-1.26-.33-1.26-1.64s1.26-1.67,1.26-1.67c11.48,0,24.09,0,36.46.27,0,0,1.31.19,2.67,1.67,1.39,1.51.97,3.97.97,3.97"/><rect class="cls-2" x="216.02" y="89.28" width="6.07" height="1.14"/><rect class="cls-2" x="305.36" y="89.47" width="6.07" height="1.14"/><path class="cls-1" d="m165.41,103.79c1.28,0,5.66.16,6.53.36.88.24,1.75.95,2.29,1.82,1.21,1.59,2.09,2.93,2.43,3.65.2.32.27.4.4.32l.64-.32c.1-.04.14-.16.1-.31-.13-.48-1.21-5.95-1.35-6.58,0-.32-.07-.48-.2-.56-.14,0-.67.16-1.28.16-2.16,0-11.05.08-11.52.08-3.84,0-5.12-.12-5.46-.12-.13,0-.27.08-.27.24v1.15c0,.12.14.2.27.2h1.68c.88,0,1.35.4,1.35,1.11,0,.44.07,6.06.07,7.81v2.77c0,6.82-.07,11.81-.1,12.6-.03.67-.3.83-1.11.83h-1.35c-.14,0-.2.08-.2.24v1.07c0,.2.07.28.2.28.47,0,1.75-.12,4.78-.12,3.3,0,4.65.12,4.99.12.2,0,.27-.08.27-.32v-.99c0-.2-.07-.27-.27-.27h-1.82c-.81,0-1.08-.16-1.08-1.27v-9.87c1.01,0,2.59,0,3.87.24.67.16,1.28.75,1.69,1.62.17.36.47,1.58.5,1.86.03.24.14.32.27.32l.74-.16c.14-.04.24-.12.2-.39-.07-.79-.2-2.69-.2-4.12,0-.56,0-3.8.07-4.52,0-.16-.07-.24-.2-.24l-.67-.08c-.13,0-.24.16-.27.32-.13.72-.33,1.51-.6,2.02-.57.99-1.11,1.47-1.79,1.55-.54.16-2.66.2-3.6.2v-12.68Z"/><path class="cls-1" d="m181.8,120.83c0,3.37.1,5.07.34,6.22.37,1.58,1.15,2.65,2.66,3.37.78.36,1.85.52,3.47.52,2.29,0,3.67-.56,4.58-1.51,1.25-1.19,1.72-2.81,1.85-4.87.03-.99.1-5.39.1-5.75,0-.44-.03-3.45.03-3.76.1-.44.17-1.07,1.41-1.07h.3c.14,0,.2-.12.2-.28v-.87c0-.2-.07-.32-.23-.32-.2,0-1.55.12-2.46.12-1.05,0-2.93-.12-3.1-.12-.13,0-.2.12-.2.24v.91c0,.2.07.31.2.31h.37c1.08,0,1.41.4,1.48,1.07.07.43.1,1.66.14,3.6l.07,5.43c.03,1.58-.2,3.09-1.08,4.04-.67.76-1.65,1.15-2.66,1.15-.91,0-2.12-.36-2.9-1.47-.54-.83-.74-2.06-.77-3.17,0-.56-.07-3.73-.07-5.03v-1.58c0-1.47-.03-2.82.03-3.33.03-.32.4-.71,1.55-.71h.47c.13,0,.2-.12.2-.24v-.95c0-.2-.07-.28-.23-.28-.2,0-2.19.12-3.5.12-1.65,0-3.8-.12-4.01-.12-.14,0-.2.08-.2.2v1.03c0,.16.07.24.2.24h.61c1.01,0,1.14.56,1.14,1.27v5.59Z"/><path class="cls-1" d="m202.11,120.2c0,4.44-.07,7.25-.1,7.73-.1.91-.61,1.19-.94,1.19h-.77c-.1,0-.13.04-.13.12v1.03c0,.24.03.32.1.32.27,0,1.79-.12,2.26-.12,1.15,0,2.49.12,2.73.12.17,0,.17-.08.17-.24v-.99c0-.16,0-.24-.17-.24h-.67c-.5,0-.88-.44-.98-1.35-.06-.36-.17-4.32-.17-6.7v-4.6h.07c.47.59,3.34,4.6,4.14,5.63,2.19,2.81,4.38,5.71,6.63,8.4.17.2.44.44.74.44.34,0,.47-.4.47-.95v-9.27c0-1.58-.07-4.08.17-5.9.07-.55.24-.83.98-.83h.34c.13,0,.2-.12.2-.28v-.83c0-.28-.07-.36-.24-.36-.24,0-1.41.12-2.12.12-1.08,0-2.53-.12-2.76-.12-.17,0-.23.08-.23.2v.99c0,.2.07.28.23.28h.57c.54,0,1.01.24,1.18.71.17.48.34,2.77.34,3.72.03,1.23.03,3.09.03,4.76v1.35h-.13c-.51-.64-3.44-4.6-4.01-5.31-.67-.83-4.58-6.18-4.68-6.34-.14-.24-.4-.32-.88-.32-.4,0-1.11.08-1.65.08-.64,0-1.31-.04-1.82-.08-.5,0-.87-.04-.94-.04-.14,0-.2.12-.2.24v.99c0,.16.07.24.2.24h.3c.94,0,1.75.67,1.75,2.1v4.12Z"/><path class="cls-1" d="m223.49,120.75c0,1.98-.07,7.37-.14,7.73-.03.2-.3.63-.74.63h-1.21c-.13,0-.17.08-.17.2v.91c0,.28.03.36.17.36.17,0,2.69-.12,3.13-.12.64,0,3.97.08,4.58.08.94,0,5.15.16,7.54-2.66,1.58-1.82,2.05-3.64,2.05-6.65s-.84-4.83-2.32-6.38c-2.36-2.38-4.72-2.34-7.81-2.34-.74,0-2.96.12-3.54.12-.81,0-3.33-.12-3.57-.12-.13,0-.17.08-.17.24v.95c0,.2.03.28.14.28h.81c.77,0,1.08.32,1.11.67.07.63.14,3.61.14,4.28v1.82Zm3.57-1.19c0-.43,0-3.57.03-4.63.03-.44.14-.75.47-.95.34-.16,1.04-.16,1.38-.16,1.92,0,3.7,1.19,4.44,2.34.81,1.23,1.48,3.41,1.48,5.55,0,1.82-.47,3.68-1.21,4.91-.6,1.03-2.49,2.58-4.31,2.58-.57,0-1.48-.28-1.79-.71-.34-.48-.44-.91-.44-1.43-.03-1.27-.07-5.39-.07-5.7v-1.79Z"/><path class="cls-1" d="m250.86,123.72c.24.79,1.15,3.96,1.25,4.64.03.39-.07.75-.54.75h-.57c-.1,0-.2.12-.2.27v.79c0,.2.03.4.27.4.44,0,2.43-.12,3.07-.12,1.89,0,3.67.12,4.07.12.17,0,.24-.16.24-.36v-.87c0-.12-.1-.24-.24-.24h-.57c-.57,0-1.15-.36-1.58-1.07-.23-.36-1.68-5.03-2.19-7.01-.4-1.59-2.09-7.25-2.56-8.84-.1-.28-.17-.44-.37-.44-.24,0-.37.12-.51.28-.37.36-1.18.83-2.32,1.07-.3.08-.51.2-.51.44,0,.2.14.36.27.48.14.12.07.39,0,.63-.2.67-2.19,6.06-2.43,6.62-.77,1.98-2.59,6.73-2.83,7.05-.34.43-.91.79-1.31.79h-.4c-.13,0-.2.12-.2.27v.79c0,.2,0,.4.13.4.3,0,1.99-.12,2.63-.12.54,0,2.32.12,2.59.12.17,0,.2-.12.2-.28v-.91c0-.16-.07-.27-.24-.27h-.67c-.67,0-.84-.52-.67-1.31.1-.43,1.15-3.6,1.31-4.08h4.88Zm-4.38-1.39c.17-.4,1.92-5.71,2.02-6.02.13-.32.2-.47.34-.47.1,0,.17.16.27.56.13.48,1.35,5.39,1.48,5.94h-4.11Z"/><path class="cls-1" d="m263.3,120.75c0,1.98-.07,7.37-.13,7.73-.03.2-.3.63-.74.63h-1.21c-.13,0-.17.08-.17.2v.91c0,.28.03.36.17.36.17,0,2.69-.12,3.13-.12.64,0,3.97.08,4.58.08.94,0,5.15.16,7.55-2.66,1.58-1.82,2.05-3.64,2.05-6.65s-.84-4.83-2.32-6.38c-2.36-2.38-4.72-2.34-7.81-2.34-.74,0-2.96.12-3.54.12-.81,0-3.33-.12-3.57-.12-.13,0-.17.08-.17.24v.95c0,.2.03.28.14.28h.81c.77,0,1.08.32,1.11.67.07.63.13,3.61.13,4.28v1.82Zm3.57-1.19c0-.43,0-3.57.03-4.63.03-.44.14-.75.47-.95.34-.16,1.04-.16,1.38-.16,1.92,0,3.7,1.19,4.44,2.34.81,1.23,1.48,3.41,1.48,5.55,0,1.82-.47,3.68-1.21,4.91-.61,1.03-2.49,2.58-4.31,2.58-.57,0-1.48-.28-1.78-.71-.34-.48-.44-.91-.44-1.43-.03-1.27-.07-5.39-.07-5.7v-1.79Z"/><path class="cls-1" d="m290.67,123.72c.24.79,1.15,3.96,1.25,4.64.03.39-.07.75-.54.75h-.57c-.1,0-.2.12-.2.27v.79c0,.2.03.4.27.4.44,0,2.43-.12,3.06-.12,1.89,0,3.67.12,4.08.12.17,0,.23-.16.23-.36v-.87c0-.12-.1-.24-.23-.24h-.57c-.57,0-1.15-.36-1.58-1.07-.23-.36-1.68-5.03-2.19-7.01-.4-1.59-2.09-7.25-2.56-8.84-.1-.28-.17-.44-.37-.44-.23,0-.37.12-.51.28-.37.36-1.18.83-2.32,1.07-.3.08-.5.2-.5.44,0,.2.13.36.27.48.13.12.07.39,0,.63-.2.67-2.19,6.06-2.43,6.62-.77,1.98-2.59,6.73-2.83,7.05-.34.43-.91.79-1.32.79h-.4c-.14,0-.2.12-.2.27v.79c0,.2,0,.4.13.4.3,0,1.99-.12,2.63-.12.54,0,2.32.12,2.59.12.17,0,.2-.12.2-.28v-.91c0-.16-.07-.27-.24-.27h-.67c-.67,0-.84-.52-.67-1.31.1-.43,1.15-3.6,1.31-4.08h4.88Zm-4.38-1.39c.17-.4,1.92-5.71,2.02-6.02.13-.32.2-.47.33-.47.1,0,.17.16.27.56.13.48,1.35,5.39,1.48,5.94h-4.11Z"/><path class="cls-1" d="m311.56,121.74c0,1.9,0,5.23-.13,5.87-.2,1.11-.94,1.51-1.82,1.51h-.88c-.2,0-.27,0-.27.24v.91c0,.24.07.32.2.32.27,0,3.44-.12,4.72-.12,1.15,0,4.24.12,4.51.12.14,0,.2-.08.2-.32v-.91c0-.16-.07-.24-.2-.24h-1.21c-1.15,0-1.75-.48-1.82-1.74v-6.42c0-1.94.07-3.6.13-4.08.07-1.27.47-1.59,1.35-1.59h1.48c.2,0,.27-.08.27-.32v-.91c0-.16-.07-.24-.27-.24-.34,0-3.17.12-4.45.12-1.08,0-4.31-.12-4.65-.12-.2,0-.27.16-.27.32v.95c0,.12.07.2.14.2h1.35c1.15,0,1.48.48,1.55,1.51.07.48.07,1.98.07,3.25v1.71Z"/><path class="cls-1" d="m330.68,127.69c-1.01,5.39-2.96,8.72-6.53,10.38-.54.24-.67.4-.67.71,0,.39.14.63.47.63.27,0,.27-.08.61-.16,3.98-.95,10.31-6.82,10.31-16.56,0-3.84-2.02-9.23-6.53-9.23-3.84,0-6.94,4.04-6.94,8.4,0,5.03,3.44,7.17,5.86,7.17,1.41,0,2.9-.87,3.3-1.42l.13.08Zm-2.83-.16c-1.15,0-2.9-1.43-2.9-5.23,0-3.21.61-7.41,3.37-7.41,2.02,0,2.76,2.62,2.76,5.39s-.14,4.63-.67,5.66c-.41.79-1.15,1.59-2.56,1.59"/><path class="cls-1" d="m346.43,113.46c-4.99,0-7.61,4.52-7.61,8.96,0,5.27,3.57,8.52,7.41,8.52,4.72,0,7.61-4.2,7.61-8.72,0-5.19-3.23-8.76-7.41-8.76m4.48,8.64c0,3.29-1.45,6.3-4.48,6.3-2.46,0-4.72-2.3-4.72-6.5,0-2.14,1.04-5.98,4.65-5.98,2.56,0,4.55,2.69,4.55,6.18"/><path class="cls-1" d="m358.95,141.08c1.15,0,1.62-.95,2.22-2.85.67-2.46,3.57-10.7,4.31-12.44.94-2.53,3.37-8.48,4.65-11.25.17-.36.13-.6-.27-.6h-8.48c-.67,0-1.15-.08-1.01-.71,0-.32.14-.48.14-.71s-.47-.32-.61-.32-.34.16-.4.48c-.27.95-2.22,5.31-2.69,6.5-.2.4-.13.79.27.79.47,0,.54-.08.81-.48.47-.87,1.35-1.9,3.3-1.9h6.06c-1.15,2.5-7.55,16.53-8.62,18.9-.47,1.03-1.01,2.3-1.01,3.17,0,.79.4,1.43,1.35,1.43"/><path class="cls-1" d="m205.63,46.48c1.48,3.84-.7,7.45-4.08,8.16-.73-.07-1.38.1-1.99,0-2.05-.33-3.15-1.72-4.17-3.04-.18-.83-.35-1.67-.57-2.46.36-3.07,1.79-4.96,4.74-5.5.59-.11,1.15-.27,1.71-.19,2,.28,3.28,1.56,4.37,3.03"/><path class="cls-1" d="m328.26,54.63c-4.53.41-7.26-2.99-6.54-7.02.06-.35.34-1.15.57-1.52.04-.06.48-.2.57-.38.04-.09-.06-.31,0-.38.91-1.1,3-2.19,5.12-1.9,3.19.44,5.3,3.38,4.74,6.83-.19,1.17-1.04,2.27-1.99,3.03-.63.51-1.41,1.02-2.47,1.33"/><path class="cls-1" d="m222.13,47.43v.76c-.3.1-.3-.86,0-.76"/><path class="cls-1" d="m221.94,48.94v1.33h-6.07c.02-.52-.12-1.2.29-1.33h5.79Z"/><path class="cls-1" d="m311.28,49.13c-.1.34.22,1.1-.19,1.14-1.59.44-3.99.06-5.89.19v-1.33h6.07Z"/><path class="cls-1" d="m217,56.91c-.29-.09-.96.2-.95-.19-.38-1.11-.19-3.28-.09-4.55,0-.21.87-.37.85,0,.44,1.2.06,3.22.19,4.74"/><rect class="cls-2" x="218.33" y="51.98" width=".95" height="4.93"/><rect class="cls-2" x="220.61" y="51.98" width=".95" height="4.93"/><path class="cls-1" d="m192.92,57.1c-.06.21.18.14.19.28,0,.33.05.68-.19.76-.02,2.79-2.58,5.01-5.03,5.22-2.89.25-5.94-2.18-5.98-5.12-.08-.23-.28-.35-.19-.76-.05-.21.18-.14.19-.29.09-1.68.82-3.11,2.09-4.08.05-.04.22.02.28,0,.22-.06.4-.46.67-.57,1.29-.54,3.7-.54,4.93,0,1.08.48,2.78,2.36,3.04,3.7.05.29-.04.57,0,.85"/><path class="cls-1" d="m306.16,57.1h-.76c-.36-1.25-.21-3.53-.09-4.93.26.09.89-.19.85.19.33,1.16.3,3.58,0,4.74"/><path class="cls-1" d="m308.44,57.1h-.76c-.36-1.19-.21-3.4-.1-4.74,0-.21.88-.37.85,0,.33,1.16.3,3.58,0,4.74"/><path class="cls-1" d="m310.9,52.17c-.11,1.6.23,3.65-.19,4.93h-.76c-.36-1.19-.21-3.4-.09-4.74.1-.31.66-.16,1.04-.19"/><path class="cls-1" d="m335,58.9c-.35-3.65,1.28-5.91,4.17-6.54.73-.16,1.6-.31,2.47-.19,2.01.28,3.98,2.26,4.36,4.08.8,3.8-2.26,7.34-5.88,7.12-2.6-.16-4.25-1.99-5.12-4.46"/><path class="cls-1" d="m309.19,56.91c.34-.09.14.37.19.57h-.38c-.13-.39.21-.3.19-.57"/><path class="cls-1" d="m221.94,58.05v1.33h-6.07c.02-.52-.12-1.19.29-1.33h5.79Z"/><path class="cls-1" d="m311.28,58.24c-.1.34.22,1.1-.19,1.14-1.59.44-3.99.07-5.89.19v-1.33h6.07Z"/><path class="cls-1" d="m169.01,66.58v-2.47c.42-.4.42-1.4.76-1.9.25-.37,1.49-1.5,1.8-1.71.54-.35,1.49-.68,1.99-.76,2.9-.46,4.85,1.12,5.69,2.37.67,1.01,1.13,2.59.95,3.89-.79,5.71-9.5,6.99-11,.57h-.19Z"/><path class="cls-1" d="m358.9,64.02c.39,4.25-1.67,6.05-4.65,6.92-3.96.38-6.82-2.74-6.55-6.07.2-2.46,1.92-4.43,4.55-4.93,3.53-.82,5.79,1.55,6.64,4.08"/><rect class="cls-2" x="217" y="60.13" width="3.8" height=".76"/><path class="cls-1" d="m310.15,60.42v.29c-.49.71-3.12.4-3.99.19-.07-.42.08-.62.29-.76,1.17.15,2.98-.32,3.7.28"/><path class="cls-1" d="m311.1,60.13c.08.23.28.35.19.76h.95c.38.45.43,1.21.38,2.09-.44.07-.36.65-.95.57.51-.53.51-1.94,0-2.47-.47.02-.91.03-1.14-.19-.05-.49.08-.81.57-.76"/><path class="cls-1" d="m201.35,71.71c-.59-.05-1.12.07-1.61,0-1.38-.19-2.2-1-3.22-1.52-.55-1.16-1.58-1.83-1.52-3.6.07-.29-.33-.12-.19-.47.4-2.92,1.7-4.94,4.55-5.41,4.39-1.01,7.3,2.88,6.64,6.64-.31,1.73-1.96,3.73-3.89,4.17-.28.06-.66-.12-.76.19"/><path class="cls-1" d="m329.87,71.14c-.53-.06-.77.18-1.05.38-.36.02-.86-.1-.95.19-.48-.04-1.01.06-1.42,0-2.18-.3-3.3-1.67-4.36-3.04-1.79-4.76,1.59-8.78,6.07-8.16.65.09,1.47.39,2.09.76.03.01.06.32.19.38.38.17.95.39,1.14,1.04.11.36.78,1,.95,1.42.21.51.32,2.06.19,3.03-.27,1.93-1.62,2.82-2.85,3.98"/><path class="cls-1" d="m221.75,61.56c.33.14.14.81.19,1.23h-6.07c.02-.52-.12-1.19.29-1.33,1.84.06,3.92-.12,5.6.1"/><path class="cls-1" d="m311.28,61.65c-.1.34.22,1.1-.19,1.14-1.59.44-3.99.07-5.89.19v-1.33h6.07Z"/><rect class="cls-2" x="217" y="63.55" width="3.8" height=".76"/><path class="cls-1" d="m310.15,63.83v.28c-.49.7-3.12.4-3.99.19-.07-.42.08-.62.29-.76,1.17.15,2.98-.32,3.7.28"/><path class="cls-1" d="m311.1,63.55c.08.23.28.35.19.76h.95c.38.45.43,1.21.38,2.09-.44.07-.36.65-.95.57.51-.53.51-1.94,0-2.47-.47.02-.91.02-1.14-.19-.05-.49.08-.81.57-.76"/><path class="cls-1" d="m221.75,64.97c.33.14.14.81.19,1.23h-6.07c.02-.52-.12-1.19.29-1.33,1.84.06,3.92-.13,5.6.1"/><path class="cls-1" d="m311.28,65.07c-.1.34.22,1.1-.19,1.14-1.59.44-3.99.06-5.89.19v-1.33h6.07Z"/><rect class="cls-2" x="217" y="66.96" width="3.8" height=".76"/><path class="cls-1" d="m310.15,67.25v.29c-.49.7-3.12.4-3.99.19-.07-.42.08-.62.29-.76,1.17.15,2.98-.32,3.7.28"/><path class="cls-1" d="m311.1,66.96c.08.23.28.35.19.76h.95c.38.45.43,1.21.38,2.09-.44.07-.36.65-.95.57.51-.53.51-1.94,0-2.46-.47.02-.91.02-1.14-.19-.05-.49.08-.81.57-.76"/><rect class="cls-2" x="215.86" y="68.48" width="6.07" height="1.14"/><path class="cls-1" d="m311.1,68.58c.33.14.14.81.19,1.23h-6.07v-1.33c1.93.06,4.11-.13,5.88.09"/><path class="cls-1" d="m192.92,72.94v.85c-.12.31.31.07.19.38.08.3-.08.36-.19.47-.2,2.8-2.13,4.83-4.65,5.22-4.19.64-6.98-3.27-6.35-6.83.37-2.1,2.04-3.78,4.37-4.17,3.47-.84,5.86,1.51,6.64,4.08"/><path class="cls-1" d="m345.62,76.83c-1,1.19-1.83,2.42-3.51,2.85-.26.06-.67-.12-.76.19-4.17.31-6.98-2.96-6.35-6.83.09-.55.4-1.28.76-1.9-.01.02.33-.09.38-.19.23-.48.49-.97,1.05-1.14.16-.05.23-.35.28-.38.48-.29,1.17-.52,1.9-.57,3.47-.91,6.57,1.8,6.83,4.84.09,1.06-.41,2.01-.57,3.13"/><rect class="cls-2" x="217" y="70.38" width="3.8" height=".76"/><path class="cls-1" d="m310.15,70.66v.28c-.49.71-3.12.4-3.99.19-.07-.42.08-.62.29-.76,1.17.15,2.98-.32,3.7.28"/><path class="cls-1" d="m311.1,70.38c.08.23.28.35.19.76h.95c.53.61.71,2.76-.57,2.66.57-.68.72-2.92-.95-2.47-.3-.29-.27-1.08.38-.95"/><rect class="cls-2" x="215.86" y="71.9" width="6.07" height="1.14"/><path class="cls-1" d="m311.1,71.99c.33.14.14.81.19,1.23h-6.07v-1.33c1.93.06,4.11-.13,5.88.09"/><rect class="cls-2" x="217" y="73.79" width="3.8" height=".76"/><path class="cls-1" d="m306.16,73.98c1.3.06,2.85-.13,3.99.09,0,1.24-3.2.58-3.99.48v-.57Z"/><path class="cls-1" d="m310.53,73.98h.76v.57h.95c.53.61.71,2.76-.57,2.65.65-.61.67-2.96-.95-2.47-.08-.23-.28-.34-.19-.76"/><rect class="cls-2" x="215.86" y="75.31" width="6.07" height="1.14"/><path class="cls-1" d="m311.1,75.4c.33.14.14.81.19,1.23h-6.07v-1.33c1.93.06,4.11-.13,5.88.1"/><path class="cls-1" d="m206,83.37c-.18,2.92-2,4.2-4.27,5.03-4.01.34-5.83-1.51-6.73-4.27,0-.48.05-1-.19-1.23.4-3.3,2.05-5,5.03-5.5,3.48-.58,6.59,2.31,6.16,5.97"/><rect class="cls-2" x="217" y="77.21" width="3.8" height=".76"/><path class="cls-1" d="m328.45,88.4c-.87-.08-1.64.1-2.37,0-1.99-.28-3.98-2.23-4.37-4.08-.77-3.7,1.96-7.4,5.88-7.11,3.37.24,5.68,3.36,5.12,6.83-.36,2.25-2.01,3.54-4.27,4.36"/><path class="cls-1" d="m310.15,77.49c-.2,1.35-2.73.37-3.99.66v-.76c1.3.06,2.85-.13,3.99.09"/><path class="cls-1" d="m310.53,77.4h.76v.57c1.74-.52,1.8,2.74.38,2.66.65-.61.67-2.96-.95-2.47-.08-.23-.28-.35-.19-.76"/><rect class="cls-2" x="215.86" y="78.72" width="6.07" height="1.14"/><path class="cls-1" d="m311.1,78.82c.33.14.14.81.19,1.23h-6.07v-1.33c1.93.06,4.11-.13,5.88.1"/><rect class="cls-2" x="217" y="80.62" width="3.8" height=".76"/><path class="cls-1" d="m310.15,80.91c-.2,1.34-2.73.36-3.99.66v-.76c1.3.06,2.85-.13,3.99.09"/><path class="cls-1" d="m310.53,80.81h.76v.57c1.71-.55,1.85,2.79.38,2.66.65-.61.67-2.96-.95-2.47-.08-.23-.28-.35-.19-.76"/><rect class="cls-2" x="215.86" y="82.14" width="6.07" height="1.14"/><path class="cls-1" d="m311.1,82.23c.33.14.14.81.19,1.23h-6.07c.02-.52-.12-1.19.29-1.33,1.83.06,3.92-.13,5.6.1"/><rect class="cls-2" x="217" y="84.04" width="3.8" height=".76"/><path class="cls-1" d="m310.15,84.32c-.2,1.35-2.73.36-3.99.66v-.76c1.3.06,2.85-.13,3.99.09"/><path class="cls-1" d="m310.53,84.23h.76v.57c1.71-.55,1.85,2.79.38,2.66.65-.61.67-2.96-.95-2.47-.08-.23-.28-.35-.19-.76"/><rect class="cls-2" x="215.86" y="85.55" width="6.07" height="1.14"/><rect class="cls-2" x="305.21" y="85.74" width="6.07" height="1.14"/><rect class="cls-2" x="217" y="87.45" width="3.8" height=".76"/><path class="cls-1" d="m310.15,87.74c-.2,1.35-2.73.36-3.99.66v-.76c1.3.06,2.85-.12,3.99.1"/><path class="cls-1" d="m310.53,87.64h.76v.57c.82-.19.88.39,1.33.57,0,.94.16,2.05-.76,2.09.32-.93.47-2.88-1.14-2.47-.08-.23-.28-.35-.19-.76"/><path class="cls-1" d="m262.72,0h1.9c1.86.75,4.08,2.1,3.23,4.93,3.56-.33,5.49,1.75,4.93,4.93,3.09-.93,5.89.84,5.5,4.55,3.17-1.11,6.45.52,6.07,4.18,2.97-.97,6.05,1.1,5.5,4.17,4.07-.54,6.22,1.67,5.5,5.31,2-.88,3.56-.59,4.93.85.84.88,1.13,2.02.76,3.32,1.11-.18,2.14-.64,3.23-.19,1.57.66,3.32,2.67,2.65,4.93.93-.02,2,.1,2.66-.19-.15,4,.24,7.47.19,11.38h2.09c1.04.33,1.06,2.74-.19,2.85.38-.44.43-1.21.38-2.09-.27-.11-.46-.3-.57-.57-2.23.2-5.3-.43-6.92.38-.06.74-.33,1.66.09,2.09.95.94,4.97-.31,6.46.19.16.47.7.56.94.95-.1,1.76.23,3.95-.19,5.4,1.11.2,1.03,2.75-.19,2.75.38-.45.43-1.21.38-2.09-.25-.19-.57-.32-.76-.57.12-.71.54-5.16,0-5.69-.33-.33-1.88-.46-1.99.38-.27-.65-1.72-.84-2.18-.38-.44.44-.25,3.45-.19,4.65.02.34.42,1.23-.28,1.04.07-1.29.3-4.25-.09-5.69-2.92-1.55-1.61,3.34-1.9,5.31,0,.33.39.24.38.57-.88-.17-.65,1.73-.38,2.09-.07.58.86.16.95.57v.66c-.18.26-.98-.1-1.05.29-.18.57-.15,1.73.09,2.18.1.31,1-.17.95.28v.67c-.18.26-.98-.1-1.05.28-.18.57-.15,1.73.09,2.18.1.31,1-.18.95.28v.66c-.1.31-1-.17-.95.28-.35.41-.13,1.39-.19,2.09.14.36,1.05-.04,1.14.38v.66c-.1.32-1-.17-.95.29-.35.41-.13,1.39-.19,2.09.3.4,1.31.09,1.14.95-.18.35-.98.1-1.05.57-.22.45-.03,1.3-.09,1.9.3.4,1.31.09,1.14.95-.18.35-.98.1-1.05.57-.22.44-.03,1.29-.09,1.9.3.4,1.31.09,1.14.95-.18.35-.98.1-1.05.57-.22.44-.03,1.29-.09,1.9.3.4,1.31.09,1.14.95-.18.36-.98.1-1.05.57-.1.39-.27,1.66.09,1.9-.07.68,1.21,0,.95.85-.11.49-.96.24-1.14.66,0,.82-.06,1.71.19,2.28-27.47-.06-55.2.13-82.52-.09.64-.16.8-1.78.38-2.37-.08-.61-1.41.01-1.14-.95.21-.39,1.18-.02,1.23-.57.1-.39.27-1.66-.09-1.9-.08-.61-1.41.01-1.14-.95.21-.39,1.18-.03,1.23-.57.13-.45.24-1.69-.09-1.99-.08-.59-1.46.13-1.14-.85.21-.39,1.18-.03,1.23-.57.15-.76.23-1.45-.09-1.9-.38-.52-1.06-.08-1.14-.85.42-.57.72-.08,1.14-.66.36-.5.32-1.45,0-1.9-.28-.39-.25-.28-.57-.38-.08-.02-.6.21-.57-.29-.14-.83,1.08-.32,1.23-.85.26-1.13.22-2.01-.66-2.28-.09-.03-.61.21-.57-.28-.14-.83,1.08-.32,1.23-.85.26-1.13.22-2.01-.66-2.28-.09-.03-.61.21-.57-.28-.15-.75.8-.41,1.14-.66.17-.49.4-1.74,0-2.18-.01-.56-1.18.05-1.14-.57-.15-.75.8-.41,1.14-.66.34-1.05.4-2.17-.57-2.47-.1-.03-.62.21-.57-.28-.15-.75.8-.41,1.14-.66.23-.53.21-1.31.19-2.09-.3-.11-.42-.4-.76-.48.01-.59.67-5.11,0-5.78-.33-.33-1.35-.36-1.71,0-.48.48-.22,3.7-.19,4.93,0,.26.43,1.08-.19.95-.51-.71.71-4.98-.19-5.88-.34-.34-1.33-.38-1.71,0-.79.79.23,5.15-.19,5.88-.62.08-.21-.69-.19-1.04.06-1.34.11-3.61-.19-4.65-.26-.57-1.37-.4-1.9-.19-.24,1.57-.48,4.6.19,5.88-.76.13-.55,1.22-.57,2.09.27.11.46.3.57.57.28.07.89-.2.76.28.05.75-1.12.27-1.23.86-.23.58-.08,1.6.1,2.09.32.22,1.09,0,1.14.47.05.74-1.12.27-1.23.85-.23.58-.08,1.6.1,2.09.32.22,1.09,0,1.14.47.08.68-.87.33-1.14.67-.26.6-.26,1.67,0,2.28.32.22,1.09,0,1.14.47.08.68-.87.33-1.14.67-.26.6-.26,1.67,0,2.28.38.25,1.35-.08,1.14.76-.09.42-.99.02-1.14.38-.26.6-.26,1.67,0,2.28.55.24,1.14,0,1.14.57s-.59.33-1.14.57c-.26.6-.26,1.67,0,2.28.55.24,1.14,0,1.14.57s-.59.33-1.14.57c-.26.6-.26,1.67,0,2.28.14.4,1.19-.11,1.14.47.15.75-.8.41-1.14.67-.26.6-.26,1.67,0,2.28.3.34,1.29-.03,1.14.76-.2.31-.8.21-1.14.38-.41.7-.08,2.11.1,2.47-1,0-1.07-1.38-.76-2.09.27-.6.99-.41.86-1.04.07-.52-.74-.14-.76-.57-.23-.61-.32-1.29-.1-1.8.23-.52.94-.43.86-1.04.07-.52-.74-.14-.76-.57-.31-.53-.22-1.63,0-2.18.19-.28.96.01.76-.66.07-.52-.74-.14-.76-.57-.31-.53-.22-1.63,0-2.18.19-.28.96.02.76-.66.07-.52-.74-.14-.76-.57-.31-.53-.22-1.63,0-2.18.15-.29.92.03.76-.57-.01-.62-.79-.47-.95-.95-.04-.73,0-1.4.19-1.9.15-.29.92.03.76-.57-.01-.62-.79-.47-.95-.95-.04-.73,0-1.4.19-1.9.15-.29.92.03.76-.57-.01-.62-.79-.47-.95-.95v-1.71c.19-.39.97-.17.95-.76-.08-.59-.74-.58-.95-1.04v-1.61c.19-.38.97-.17.95-.76-.08-.59-.74-.58-.95-1.04-.11-1.03.05-1.79.57-2.18-.8-1.1-.19-3.61-.38-5.31.18-.32.62-.39.76-.76-.3-.3-.7-.51-.95-.85v-1.61c.36-.12.71-.74,1.14-.47-.65.26-.61,1.23-.57,2.18.25.19.57.32.76.57,2.17-.1,4.77.22,6.64-.19.16-.7.46-1.82,0-2.28-.91-.91-4.13.44-5.22-.38-.16-3.45-.16-7.56,0-11,.45-.57,2.04-.44,2.75-.19-.1-2.1.49-3.7,1.8-4.55,1.27-.82,2.69-.48,4.08-.19-.4-1.18,0-2.3.66-3.23.52-.73,1.72-1.44,2.47-1.52.95-.1,1.58.52,2.56.57-.84-3.73,1.42-5.88,5.5-5.31-.57-3.06,2.14-5.04,5.5-4.17-.42-3.77,2.82-5.25,6.07-4.18-.63-3.22,1.97-5.5,5.5-4.55-.86-3.47,2-5.62,5.5-4.74-.36-3.08,1.18-4.26,3.04-5.12m-.95,6.83c-1.1-.04-2.11,0-2.66.38-.81.55-2.29,2.65-2.46,3.79-.26,1.7-.34,3.05.19,4.55,1.26,0,1.91-.62,3.23-.57.39-1.38,1.53-2.01,2.85-2.47.11-2.38-.12-4.44-1.14-5.69m9.29,8.16v-4.27c-.84-1.62-1.54-3.51-3.41-3.89-3.05-.61-2.86,3.1-3.03,5.88,1.3.28,2.12,1.03,2.66,2.09,1.5-.17,2.07.58,3.42.57.04-.21.16-.34.38-.38m4.55-2.28c-.7-.31-.68-1.15-1.33-1.33-2.03-.54-1.89,2.52-1.52,4.08.99.11,2.05.16,3.04.28.07-1.15-.05-2.1-.19-3.04m-22.19,3.04c.52-.11,1.5.23,1.71-.19.4-1.11.26-3.3-.38-3.99-2.36-.12-3.04,2.37-2.46,4.55.59.09.74-.26,1.14-.38m3.6,11.76c1.25-.71,3.41-.51,5.12-.76,1.02-1.47,1.03-5.14.19-6.83-4.96-1.5-6.12,3.33-5.31,7.59m8.34-7.77c-1.58,1.56-.69,4.74-.38,7.02,1.73-.45,4.05-.05,5.12.76,1.11-3.79.17-8.8-4.74-7.77m6.64,2.27c3.32-.69,5.66.98,5.31,4.55.22-.13.51-.19.66-.38,3.19-.06,5.22,1.04,5.03,4.36,3.11-.71,5.45.83,5.12,4.17.81-.19,1.61-.33,2.37-.19.8.14,2.47,1.61,2.75,2.18.41.83.16,1.91,0,2.94,3.07-1.1,5.78.73,5.5,4.17,3-1.08,5.56.82,5.69,3.79.39-.1-.01.58.48.38.23-.48-.29-1.04-.09-1.8-.29-.09-.17-.59-.19-.95-.23-.4-.35-.91-.38-1.52-.37-.46-.33-1.32-.76-1.71.02-.81-.64-.94-.57-1.8-3.92-7.97-10.23-13.55-18.02-17.64-2.12-.62-4.26-1.65-6.83-1.9-1.78-.17-3.75-.23-5.88-.19.41.44-.03,1.08-.19,1.52m-38.7,17.83c.3-.18-.16-.79-.19-1.14-.14-1.57.95-3.15,1.99-3.79.53.02.69-.32,1.33-.19.32-.34,1.65-.26,1.99,0-.25-3.33,2.13-4.89,5.31-4.17-.38-3.54,2.23-4.88,5.5-4.17-.15-3.27,2.11-5.07,5.32-4.37-.07-.44-.3-.72-.19-1.33-1.97-.1-3.61.12-5.4.19-.12.32-.74.15-1.14.19-.66.29-1.42.47-2.28.57-.46.36-1.32.33-1.71.76-.82-.02-.94.64-1.8.57-8.45,5-17.26,11.74-19.73,22.57-.12.52-.35,1.38,0,1.71.22-2.75,2.79-4.52,5.69-3.42-.79-2.96,2.65-5.68,5.31-3.98m39.45-16.12c-.55.91-.35,2.56-.38,3.99.11,0,.22.03.19.19,1.04-.22,1.67.1,2.85.19.38-2.63-.59-4.79-2.66-4.36m-20.86,4.36c.91-.17,2.09-.06,2.85-.38.35-1.05.39-3.42-.38-3.99-2.11.17-2.63,1.92-2.46,4.36m3.51,4.55c-.76-.13-.95.32-1.71.19-.09.29-.59.17-.95.19-.91.35-1.92.6-3.04.76-1.61.64-3.29,1.2-5.03,1.71.05.33-.46.11-.47.38-.82-.02-.94.64-1.8.57-1.33.91-3.02,1.47-4.27,2.47-1.6.71-2.73,1.89-4.27,2.66-.24.33-.4.74-.95.76-2.01,1.85-3.96,3.75-5.88,5.69-.41.85-1.03,1.5-1.71,2.09.03.47-.29.6-.57.76-.48.92-1.03,1.76-1.71,2.47v7.78c.17.02.48-.1.38.19.25-.24.7-.24.95,0-.7-3.15,1.8-5.61,5.31-4.55-.85-3.03,2.3-5.2,5.12-3.98-.83-3.37,1.68-5.62,4.93-4.93-.21-3.11,2.03-4.61,5.12-3.79-.73-2.36,1.23-3.62,2.75-4.36,1.1-.06,2.06.03,2.75.38-.5-2.81,1.75-5.24,4.94-4.36-.16-1.42.22-2.32.57-3.23-.3-.08-.36.08-.48.19m37.46,20.11c.45.18,1.52-.62,2.66-.38,1.22.64,2.37,1.36,2.85,2.75-.03.57.11,1.32-.19,1.61,3.23-1.09,5.67.91,5.32,4.55.23-.09.35-.29.76-.19v-9.1c-.28-.16-.6-.29-.57-.76-.72-.67-1.43-1.35-1.9-2.28-1.66-1.5-3.24-3.08-4.75-4.74-.87-.39-1.43-1.09-2.08-1.71-.86-.48-1.65-1-2.28-1.71-.89-.38-1.65-.88-2.28-1.52-.44-.06-.81-.2-.95-.57-2.29-1.19-4.6-2.35-6.83-3.6h-.57c-2.82-1.42-6.41-2.06-10.05-2.66.35.91.73,1.8.57,3.23,3.13-.82,5.46,1.5,4.93,4.36,2.94-1.11,5.91.54,5.5,3.99,2.69-1.03,5.45.77,5.12,3.98,3.29-1.04,5.91,1.92,4.74,4.74m-30.73-19.92c-.88-.05-1.82.26-2.28.57-.3.2-.54.76-.86,1.14-.55.65-1.04,1.17-1.23,2.09-.25,1.22-.16,2.52-.19,3.99.28-.1.17.21.19.38.39-.13.3.21.57.19,1.4-1,3.71-.27,5.12-.95-.04-2.87.33-6.15-1.33-7.4m8.54,7.97c.02-.17-.1-.48.19-.38-.13-1.17.17-2.38,0-3.51-.14-.92-.7-1.67-1.04-2.18-.8-1.21-1.96-2.36-3.7-1.71-.44.87-1.02,1.73-1.14,3.03-.11,1.09.08,2.34,0,3.61.28-.1.17.21.19.38,1.24.76,4.02-.03,5.03.95.11-.11.17-.27.48-.19m-14.99-3.61c-2.08,0-2.45,1.73-2.27,3.98.96.01,1.57-.32,2.65-.19.41-1.1.21-3.07-.38-3.79m16.7,3.79c1.1-.08,1.71.32,2.65.38.48-1.84-.11-4.17-2.28-3.98-.55.78-.34,2.31-.38,3.6m-12.33,23.52h6.83v-17.64h-6.83v17.64Zm-37.94-16.31v-.76c-.3-.11-.3.86,0,.76m27.41,4.36c-.22,3.8-.03,8-.09,11.95h7.02c-.22-3.83-.21-7.88-.19-11.95h-6.73Zm20.11,0c-.22,3.8-.03,8-.09,11.95h7.02c.14-4.18-.2-7.89-.19-11.95h-6.73Zm-30.64,5.79v28.17h7.02c.02-9.57.02-19.12-.19-28.45h-6.73c-.11.01-.1.15-.09.28m40.97,0v28.17h7.02c0-9.55.06-19.15-.19-28.45h-6.74c-.11.01-.1.15-.09.28m-50.84,7.4v20.77h6.83v-21.06h-6.73c-.11.02-.1.15-.1.29m61.08,0v20.77h7.02v-21.06h-6.92c-.11.02-.1.15-.1.29m-40.78.76v20.01h7.02v-20.3h-6.92c-.11.01-.1.15-.09.28m10.43,0v20.01h7.02v-20.3h-6.92c-.11.01-.1.15-.09.28m9.68,0v20.01h7.02v-20.3h-6.92c-.11.01-.1.15-.09.28"/></g></svg>